# xmcd
#
# Track frame offsets: 
#        150
#        21385
#        44936
#        64889
#        85797
#        111132
#        132177
#        159550
#        178836
#        202217
#        222196
#        243636
#        262688
#
# Disc length: 3825 seconds
#
# Revision: 0
# Processed by: cddbd v1.5.1PL2 Copyright (c) Steve Scherf et al.
# Submitted via: ExactAudioCopy v0.95b3
#
DISCID=c40eef0d
DTITLE=Goin Postal Band - Middle Of The Storm
DYEAR=2001
DGENRE=Blues
TTITLE0=Middle Of The Storm
TTITLE1=No More
TTITLE2=I Put You Down
TTITLE3=Good Day For A Heartbreak
TTITLE4=Blow Job
TTITLE5=Movin' On To Texas
TTITLE6=Time To Move On
TTITLE7=Let Me Be
TTITLE8=Watcha Done To Me
TTITLE9=Thinkgs Got To Change
TTITLE10=Have You Ever Loved A Woman
TTITLE11=Mercedes
TTITLE12=Hurt Me Deep
EXTD=
EXTT0=
EXTT1=
EXTT2=
EXTT3=
EXTT4=
EXTT5=
EXTT6=
EXTT7=
EXTT8=
EXTT9=
EXTT10=
EXTT11=
EXTT12=
PLAYORDER=
